<?xml version="1.0" standalone="no"?>
<!DOCTYPE svg PUBLIC "-//W3C//DTD SVG 20010904//EN"
 "http://www.w3.org/TR/2001/REC-SVG-20010904/DTD/svg10.dtd">
<svg version="1.0" xmlns="http://www.w3.org/2000/svg"
 width="700.000000pt" height="700.000000pt" viewBox="0 0 700.000000 700.000000"
 preserveAspectRatio="xMidYMid meet">
<metadata>
Created by potrace 1.11, written by Peter Selinger 2001-2013
</metadata>
<g transform="translate(0.000000,700.000000) scale(0.100000,-0.100000)"
fill="#000000" stroke="none">
<path d="M3300 6457 c-3 -3 -41 -7 -85 -11 -44 -4 -93 -9 -110 -11 -16 -3 -46
-7 -65 -10 -45 -6 -84 -14 -140 -26 -25 -6 -52 -12 -60 -14 -286 -61 -647
-234 -880 -422 -76 -62 -233 -219 -305 -306 -111 -135 -237 -332 -301 -473
-28 -62 -38 -75 -52 -69 -76 29 -354 24 -502 -11 -46 -11 -60 -14 -79 -18 -39
-9 -178 -69 -239 -102 -194 -108 -345 -296 -427 -532 -13 -38 -27 -83 -29 -98
-3 -16 -10 -51 -15 -79 -17 -83 -7 -288 19 -390 24 -98 89 -246 140 -320 47
-69 154 -178 224 -231 103 -78 286 -159 401 -179 84 -14 280 -14 359 0 170 31
372 122 468 212 14 14 31 22 37 19 8 -5 11 -263 11 -872 0 -858 0 -865 -22
-942 -28 -101 -31 -295 -5 -391 32 -120 103 -253 176 -335 95 -104 294 -222
456 -268 l80 -23 1145 0 1145 0 80 23 c204 59 389 179 502 327 50 66 112 197
129 276 32 147 28 285 -11 414 -13 43 -15 172 -15 917 0 522 4 869 9 873 5 3
38 -16 73 -42 87 -66 208 -127 309 -157 120 -34 140 -37 274 -41 195 -6 357
34 519 128 69 40 183 130 222 177 12 14 32 36 44 50 24 27 110 155 110 164 0
3 11 29 24 58 30 64 63 171 73 236 15 91 6 362 -12 392 -2 3 -6 17 -9 31 -15
84 -92 247 -160 342 -178 249 -482 397 -846 411 -95 3 -208 -5 -267 -19 -15
-3 -23 -1 -23 8 0 26 -112 233 -184 341 -140 209 -334 418 -506 544 -47 34
-90 66 -97 72 -7 5 -15 10 -18 10 -4 0 -25 13 -48 29 -58 39 -223 121 -336
165 -193 76 -440 136 -671 162 -53 7 -505 16 -510 11z m475 -371 c17 -2 59 -8
95 -11 36 -4 68 -9 72 -12 4 -2 23 -6 42 -8 20 -3 79 -16 132 -30 410 -110
721 -310 976 -630 408 -512 462 -1056 153 -1537 -140 -216 -360 -435 -640
-635 -191 -136 -461 -296 -696 -411 l-85 -41 -50 19 c-163 61 -404 59 -555 -6
-36 -16 -37 -16 -130 29 -204 98 -606 336 -710 421 -14 11 -37 28 -49 36 -65
42 -268 220 -356 312 -391 411 -512 865 -349 1317 109 301 340 615 601 814
266 204 642 341 1019 373 39 4 72 8 75 11 6 5 415 -4 455 -11z m2425 -1356
c115 -31 221 -104 296 -204 97 -128 140 -270 131 -426 -10 -168 -64 -289 -181
-405 -193 -192 -478 -238 -721 -115 -44 22 -98 56 -120 74 l-40 34 23 39 c167
281 243 623 208 935 l-7 67 36 7 c118 22 280 19 375 -6z m-5025 7 c11 -3 23
-6 27 -6 4 -1 5 -34 1 -73 -12 -133 -7 -313 11 -399 22 -106 59 -238 85 -304
4 -11 36 -76 70 -145 l63 -125 -38 -33 c-53 -45 -189 -110 -266 -127 -60 -13
-216 -14 -267 -1 -154 36 -311 143 -388 263 -135 211 -135 482 -1 694 69 109
183 202 288 234 30 9 66 21 80 25 26 9 299 6 335 -3z m705 -1567 c51 -46 268
-217 338 -264 l72 -50 0 -353 0 -353 -27 -6 c-173 -39 -310 -109 -405 -208
l-47 -49 -1 673 0 674 22 -20 c13 -12 34 -31 48 -44z m3310 -611 l0 -671 -56
53 c-91 89 -197 149 -324 184 -36 9 -72 18 -80 20 -13 2 -15 50 -18 356 l-2
355 67 45 c103 68 254 186 351 276 32 29 58 53 60 53 1 0 2 -302 2 -671z
m-2548 83 c70 -39 147 -82 172 -94 25 -12 46 -26 46 -30 0 -4 -15 -31 -34 -60
-62 -97 -109 -241 -116 -349 0 -4 -28 2 -62 13 -67 20 -119 30 -205 37 -9 1
-12 75 -12 302 l0 300 42 -24 c23 -13 99 -56 169 -95z m1928 -182 c0 -259 -2
-300 -15 -301 -82 -7 -159 -21 -212 -40 -29 -10 -53 -15 -54 -11 -14 143 -55
263 -120 359 -16 23 -29 45 -29 50 0 4 51 35 112 67 62 33 155 85 208 117 52
32 98 58 103 58 4 1 7 -134 7 -299z m-957 65 c178 -47 308 -173 361 -349 41
-137 -1 -334 -95 -441 -18 -20 -30 -37 -28 -38 2 -2 29 -19 59 -38 71 -44 84
-54 147 -116 29 -29 53 -46 53 -38 0 32 74 151 124 199 118 114 275 161 437
130 193 -36 351 -196 389 -390 12 -63 8 -176 -8 -229 -37 -120 -135 -234 -245
-285 -118 -56 -175 -62 -558 -62 l-347 0 -61 -59 c-34 -32 -89 -71 -124 -88
-196 -93 -442 -48 -577 106 l-34 38 -360 2 c-326 1 -368 4 -438 22 -102 27
-165 60 -236 125 -190 176 -203 489 -27 683 76 85 196 150 296 160 26 2 55 6
64 7 10 1 41 -1 69 -5 188 -29 336 -147 400 -319 l17 -45 61 58 c53 51 161
130 191 140 5 1 -2 16 -16 31 -171 184 -154 506 35 682 127 117 293 161 451
119z"/>
<path d="M2790 5131 c-95 -92 -110 -111 -110 -139 0 -49 33 -77 85 -72 20 1
207 178 226 213 15 26 1 75 -24 89 -51 27 -64 20 -177 -91z"/>
<path d="M4039 5225 c-31 -17 -43 -53 -30 -87 15 -38 203 -216 233 -222 40 -7
78 27 78 69 0 30 -13 48 -102 138 -57 58 -114 107 -128 110 -14 3 -37 -1 -51
-8z"/>
<path d="M2665 4803 c-132 -48 -210 -160 -210 -303 0 -128 65 -229 183 -287
75 -36 181 -38 257 -4 65 29 138 101 167 165 32 73 31 191 -2 261 -30 61 -94
126 -156 156 -64 30 -171 36 -239 12z"/>
<path d="M4130 4804 c-137 -50 -215 -160 -215 -304 0 -130 66 -232 185 -288
44 -21 70 -26 130 -26 92 0 148 23 219 89 162 151 117 419 -86 515 -63 30
-171 37 -233 14z"/>
<path d="M3105 3921 c-54 -25 -78 -54 -78 -95 0 -70 58 -117 148 -121 95 -4
167 45 168 116 2 92 -132 149 -238 100z"/>
<path d="M3729 3921 c-71 -38 -92 -99 -53 -158 49 -76 229 -76 278 0 36 54 26
101 -29 143 -47 36 -143 43 -196 15z"/>
<path d="M3435 2309 c-203 -55 -275 -308 -129 -454 20 -21 60 -48 88 -60 l51
-22 0 -157 c0 -97 -4 -156 -10 -156 -5 0 -32 -11 -60 -24 -60 -28 -118 -82
-145 -136 -21 -40 -18 -40 -90 -25 -23 4 -96 19 -145 29 -67 14 -234 48 -255
52 -51 10 -56 14 -58 51 -4 49 -47 128 -93 167 -167 142 -426 35 -446 -184
-17 -186 167 -337 344 -284 58 18 123 65 152 113 l24 38 61 -13 c51 -11 408
-82 441 -88 24 -4 33 -18 39 -60 11 -71 83 -168 151 -203 155 -81 340 -23 415
130 16 34 31 77 32 95 1 17 3 32 4 32 0 0 68 14 150 30 82 17 163 33 179 36
17 3 50 10 75 15 25 6 66 13 92 16 39 4 47 2 52 -14 9 -28 64 -82 106 -103
188 -96 404 41 396 251 -3 78 -25 127 -83 185 -102 100 -281 97 -380 -7 -37
-39 -71 -111 -75 -157 -2 -32 -14 -38 -128 -58 -14 -2 -47 -9 -75 -15 -27 -6
-61 -13 -75 -15 -23 -4 -120 -24 -213 -44 -36 -8 -38 -7 -57 28 -38 74 -104
131 -177 152 l-41 13 0 158 1 158 26 6 c39 9 115 64 140 101 98 143 45 337
-111 404 -54 23 -127 31 -173 19z"/>
</g>
</svg>
